<svg data-name="Clickatell Logo - Dark" xmlns="http://www.w3.org/2000/svg" viewBox="0 0 165.774 24"><path data-name="Path 1" d="M63.811 19.639a11.689 11.689 0 01-.757 1.065 7.848 7.848 0 01-1.546 1.459 10.016 10.016 0 01-2.438 1.288 9.666 9.666 0 01-3.429.549 10.56 10.56 0 01-4.421-.909 10.109 10.109 0 01-3.43-2.524 11.373 11.373 0 01-2.2-3.811 14.277 14.277 0 01-.773-4.772 13.924 13.924 0 01.773-4.687 11.622 11.622 0 012.2-3.811A10.223 10.223 0 0151.22.928a10.384 10.384 0 014.421-.927A9.666 9.666 0 0159.07.55a10.079 10.079 0 012.438 1.288 7.868 7.868 0 011.546 1.459 11.852 11.852 0 01.757 1.065l-1.21.858q-.2-.275-.656-.876a6.447 6.447 0 00-1.277-1.219 8.842 8.842 0 00-2.034-1.1 7.933 7.933 0 00-2.925-.481 8.864 8.864 0 00-3.849.807 8.4 8.4 0 00-2.875 2.214 9.893 9.893 0 00-1.8 3.314 13.138 13.138 0 00-.622 4.1 12.827 12.827 0 00.639 4.1 10.306 10.306 0 001.816 3.331 8.249 8.249 0 002.891 2.232 9.059 9.059 0 003.9.807 7.373 7.373 0 002.773-.482 8.857 8.857 0 002.018-1.1 7.4 7.4 0 001.311-1.219q.487-.6.689-.876z" fill="#233659"/><path data-name="Rectangle 6" fill="#233659" d="M67.846.549h1.513v22.902h-1.513z"/><path data-name="Path 2" d="M74.069 7.656h1.513v15.795h-1.513zm-.3-5.562h2.118v2.232h-2.118z" fill="#233659"/><path data-name="Path 3" d="M93.395 21.12a7.47 7.47 0 01-2.538 1.974 7.983 7.983 0 01-3.581.772 7.524 7.524 0 01-5.58-2.386 7.847 7.847 0 01-1.614-2.644 9.267 9.267 0 01-.571-3.279 9.045 9.045 0 01.588-3.279 8.075 8.075 0 011.63-2.644 7.951 7.951 0 019.026-1.649 7.284 7.284 0 012.437 2.043l-1.143.893a5.616 5.616 0 00-1.933-1.631 6.13 6.13 0 00-2.841-.6 5.558 5.558 0 00-2.471.549 6.231 6.231 0 00-1.95 1.477 6.642 6.642 0 00-1.277 2.18 7.753 7.753 0 00-.454 2.661 7.5 7.5 0 00.47 2.661 6.884 6.884 0 001.294 2.18 6.223 6.223 0 001.95 1.477 5.479 5.479 0 002.437.549 6.825 6.825 0 002.975-.618 5.482 5.482 0 002.068-1.648z" fill="#233659"/><path data-name="Path 4" d="M96.925.549h1.513v15l7.934-7.9h1.984l-5.918 5.872 7.094 9.923h-1.815l-6.354-8.824-2.925 2.884v5.94h-1.513z" fill="#233659"/><path data-name="Path 5" d="M122.135 15.382a14.808 14.808 0 00-1.765-.292 25.108 25.108 0 00-2.706-.12 7.087 7.087 0 00-2.723.429 3.915 3.915 0 00-1.53 1.065 3.144 3.144 0 00-.672 1.373 6.659 6.659 0 00-.152 1.322 2.845 2.845 0 001.126 2.506 4.89 4.89 0 002.875.79 5.632 5.632 0 002.151-.412 5.929 5.929 0 001.765-1.1 5.283 5.283 0 001.194-1.562 3.923 3.923 0 00.437-1.769zm.134 8.069a6.339 6.339 0 01-.034-.687q-.034-.343-.033-.824v-1.133a7.107 7.107 0 01-1.328 1.494 6.28 6.28 0 01-1.513.944 7.051 7.051 0 01-1.546.481 7.92 7.92 0 01-1.4.137 9.389 9.389 0 01-1.95-.205 4.789 4.789 0 01-1.748-.739 4 4 0 01-1.26-1.442 4.874 4.874 0 01-.487-2.318 6.193 6.193 0 01.37-2.146 4.38 4.38 0 011.177-1.751 5.76 5.76 0 012.084-1.167 9.766 9.766 0 013.093-.429q1.413 0 2.522.1t1.882.24v-.886a6.6 6.6 0 00-.3-2.163 3.116 3.116 0 00-.908-1.373 3.466 3.466 0 00-1.479-.721 8.863 8.863 0 00-2.017-.206 6.829 6.829 0 00-3.042.566 8.867 8.867 0 00-1.731 1.082l-.807-1.065a8.092 8.092 0 012.067-1.3 7.98 7.98 0 013.479-.686 7.232 7.232 0 014.622 1.3q1.63 1.3 1.63 4.326v8.567q0 .6.033 1.047.033.549.067.961z" fill="#233659"/><path data-name="Path 6" d="M129.604 9.098h-3.1V7.656h3.1V2.437h1.513v5.219h5.11v1.442h-5.11v9.133a10.028 10.028 0 00.2 2.249 2.876 2.876 0 00.589 1.27 1.824 1.824 0 00.891.567 4.229 4.229 0 001.11.138 3.144 3.144 0 001.445-.309 3.881 3.881 0 001.21-1.065l.941.927a4.952 4.952 0 01-1.529 1.374 4.552 4.552 0 01-2.236.48 6.023 6.023 0 01-1.681-.223 2.744 2.744 0 01-1.311-.824 4.163 4.163 0 01-.841-1.614 9.265 9.265 0 01-.3-2.592z" fill="#233659"/><path data-name="Path 7" d="M152.596 14.627a7.091 7.091 0 00-1.816-4.43 5.326 5.326 0 00-3.933-1.51 5.44 5.44 0 00-2.269.463 5.36 5.36 0 00-1.765 1.27 6.484 6.484 0 00-1.194 1.888 6.918 6.918 0 00-.521 2.318zm.975 6.455a6.69 6.69 0 01-2.74 2.043 8.976 8.976 0 01-3.547.738 8.286 8.286 0 01-3.177-.6 7.144 7.144 0 01-2.5-1.7 7.877 7.877 0 01-1.631-2.627 9.844 9.844 0 01-.033-6.61 8.514 8.514 0 011.529-2.644 6.976 6.976 0 015.379-2.437 7.579 7.579 0 012.941.566 6.494 6.494 0 012.353 1.665 7.745 7.745 0 011.547 2.73 11.67 11.67 0 01.555 3.76h-13.182a7.257 7.257 0 00.5 2.524 6.6 6.6 0 001.278 2.06 5.753 5.753 0 001.933 1.374 6.127 6.127 0 002.5.5 7.449 7.449 0 002.925-.618 7.426 7.426 0 001.294-.721 4.6 4.6 0 00.992-.927z" fill="#233659"/><path data-name="Rectangle 9" fill="#233659" d="M158.109.549h1.513v22.902h-1.513z"/><path data-name="Rectangle 10" fill="#233659" d="M164.262.549h1.513v22.902h-1.513z"/><path data-name="Path 8" d="M16.179 1.778a10.843 10.843 0 00-14.923 4.93 11.814 11.814 0 004.692 15.594 10.579 10.579 0 008.392.77l.013.01a6.076 6.076 0 001.918-.9 8.743 8.743 0 01-2.471-2.964c0-.008 0-.017-.007-.025a7.062 7.062 0 01-6.15-.3A7.887 7.887 0 014.51 8.482a7.24 7.24 0 019.963-3.291 7.681 7.681 0 013.883 5.709l3.732 2.029A11.666 11.666 0 0016.174 1.78" fill="#2cc4ec"/><path data-name="Path 9" d="M20.158 22.32a10.844 10.844 0 0014.9-5A11.813 11.813 0 0030.3 1.747a10.579 10.579 0 00-8.4-.733l-.013-.01a6.094 6.094 0 00-1.915.9 8.742 8.742 0 012.48 2.956l.007.025a7.062 7.062 0 016.151.277 7.887 7.887 0 013.177 10.4 7.24 7.24 0 01-9.949 3.336 7.681 7.681 0 01-3.907-5.691l-3.74-2.012a11.663 11.663 0 005.961 11.122" fill="#8cc63f"/></svg>