<?xml version="1.0" encoding="UTF-8"?>
<svg width="166px" height="40px" viewBox="0 0 166 40" version="1.1" xmlns="http://www.w3.org/2000/svg" xmlns:xlink="http://www.w3.org/1999/xlink">
    <!-- Generator: sketchtool 63.1 (101010) - https://sketch.com -->
    <title>35B8FBE4-1DF4-46EC-9D83-ED26F7DBA786</title>
    <desc>Created with sketchtool.</desc>
    <g id="01---HOME" stroke="none" stroke-width="1" fill="none" fill-rule="evenodd">
        <g id="HOME-OCTOPUSH" transform="translate(-165.000000, -54.000000)" fill-rule="nonzero">
            <g id="Header" transform="translate(77.000000, 8.000000)">
                <g id="Menu-header" transform="translate(88.000000, 0.000000)">
                    <g id="Menu-texte-logo" transform="translate(0.000000, 32.000000)">
                        <g id="Logo-octopush" transform="translate(0.000000, 14.000000)">
                            <g id="Logo-Octopush-minimal2" transform="translate(48.000000, 4.000000)" fill="#1A171B">
                                <path d="M15.8846195,16.6186622 C15.8650175,20.8930232 12.387156,24.3438353 8.11277232,24.3301002 C3.83838861,24.316283 0.382842822,20.8431248 0.390783478,16.5687263 C0.398751544,12.2943278 3.86719996,8.83405473 8.14160535,8.83618631 C12.4261354,8.8535843 15.8890005,12.3340991 15.8846195,16.6186622 Z M13.5167224,16.6186622 C13.4754395,13.6574866 11.0483794,11.2866753 8.08704983,11.3148261 C5.12572029,11.3429768 2.74416913,13.7594993 2.75911651,16.7209246 C2.77420517,19.6823499 5.18014261,22.074594 8.14160535,22.0727348 C9.58228748,22.0771777 10.9640988,21.5014208 11.9753679,20.475302 C12.986637,19.4491832 13.5421907,18.0591261 13.5167224,16.6186622 Z" id="Shape"></path>
                                <path d="M16.4134259,16.6581271 C16.4134259,12.31699 19.9100334,8.83618729 24.0459532,8.83618729 C27.4675585,8.83618729 30.3603344,11.0541137 31.4535117,14.7559197 L29.0461538,14.7559197 C28.1068896,12.3880268 26.1888963,11.2040803 24.0459532,11.2040803 C21.1252044,11.3154125 18.814836,13.7155248 18.814836,16.6383946 C18.814836,19.5612645 21.1252044,21.9613768 24.0459532,22.072709 C26.2638796,22.072709 28.1463545,20.8295652 29.0461538,18.5208696 L31.4535117,18.5208696 C30.3248161,22.3568562 27.4675585,24.440602 24.0459532,24.440602 C19.8028701,24.3672959 16.4041862,20.9018333 16.4134259,16.6581271 Z" id="Path"></path>
                                <path d="M34.2002676,18.9865552 L34.2002676,11.2040803 L30.7391973,11.2040803 L30.7391973,8.83618729 L34.2002676,8.83618729 L34.2002676,4.10040134 L36.5681605,4.10040134 L36.5681605,8.83618729 L40.12,8.83618729 L40.12,11.2040803 L36.5681605,11.2040803 L36.5681605,18.9865552 C36.5681605,20.6795987 37.8073579,22.072709 39.4254181,22.072709 C41.0852031,22.0253824 42.3952326,20.6465896 42.3576589,18.9865552 L42.3576589,16.4331773 C42.3576589,12.1828094 45.9686957,8.83618729 50.2190635,8.83618729 C53.8654222,8.83559892 57.0259106,11.3606732 57.8303109,14.9171984 C58.6347113,18.4737237 56.8684742,22.1131046 53.5767698,23.681739 C50.2850654,25.2503734 46.345856,24.3298756 44.0901672,21.4649498 C43.2333033,23.2682153 41.4218394,24.4237515 39.4254181,24.440602 C36.5681605,24.440602 34.2002676,21.9582609 34.2002676,18.9865552 Z M55.6691639,16.6186622 C55.589535,13.653888 53.1632012,11.2918466 50.1973579,11.2918466 C47.2315145,11.2918466 44.8051808,13.653888 44.7255518,16.6186622 C44.8051808,19.5834364 47.2315145,21.9454778 50.1973579,21.9454778 C53.1632012,21.9454778 55.589535,19.5834364 55.6691639,16.6186622 Z" id="Shape"></path>
                                <path d="M59.7695652,33.0873579 L59.7695652,8.83618729 L62.1374582,8.83618729 L62.1374582,11.468495 C63.3854089,9.77315866 65.3803074,8.79116804 67.4849498,8.83618729 C71.79399,8.83618729 75.2871572,12.3293545 75.2871572,16.6383946 C75.2871572,20.9474348 71.79399,24.440602 67.4849498,24.440602 C65.3919071,24.4801548 63.4065896,23.5146419 62.1453512,21.8438127 L62.1453512,33.0873579 L59.7695652,33.0873579 Z M72.8166555,16.6186622 C72.8166555,13.6696833 70.4260358,11.2790635 67.4770569,11.2790635 C64.5280779,11.2790635 62.1374582,13.6696833 62.1374582,16.6186622 C62.1374582,19.5676411 64.5280779,21.9582609 67.4770569,21.9582609 C70.4260358,21.9582609 72.8166555,19.5676411 72.8166555,16.6186622 Z" id="Shape"></path>
                                <path d="M76.6526421,17.8973244 L76.6526421,8.82040134 L79.0205351,8.82040134 L79.0205351,17.8973244 C79.0026043,19.0232327 79.4471601,20.1072396 80.2504526,20.8963607 C81.0537451,21.6854819 82.1454921,22.110675 83.270903,22.072709 C85.453311,22.072709 87.4068227,20.3046823 87.4068227,18.1262207 L87.4068227,8.83618729 L89.7747157,8.83618729 L89.7747157,24.440602 L87.4068227,24.440602 L87.4068227,22.597592 C86.3805027,23.8093396 84.8581795,24.4877031 83.270903,24.440602 C81.5168072,24.4802969 79.8217551,23.8061443 78.5740566,22.5725819 C77.3263581,21.3390195 76.6329359,19.6517586 76.6526421,17.8973244 L76.6526421,17.8973244 Z" id="Path"></path>
                                <path d="M97.5216722,24.440602 C94.4394649,24.440602 91.9965886,22.9725084 91.3572575,20.7545819 L93.9895652,20.7545819 C94.2894983,21.6938462 95.7931104,22.4081605 97.5414047,22.4081605 C99.7593311,22.4081605 100.927492,21.3189298 100.927492,20.1152508 C100.927492,18.3117057 98.8595318,18.047291 97.2414716,17.7473579 C94.4789298,17.2224749 91.716388,16.2437458 91.716388,13.1220736 C91.716388,10.3042809 94.4236789,8.83618729 97.3204013,8.83618729 C100.217124,8.83618729 102.450836,10.3792642 103.074381,12.6721739 L100.59204,12.6721739 C100.327625,11.6579264 98.9384615,10.943612 97.3204013,10.943612 C95.4773913,10.943612 94.0882274,11.8828763 94.0882274,13.1220736 C94.0882274,13.8758528 94.4236789,14.9256187 97.770301,15.5294314 C101.819398,16.2437458 103.397993,17.7118395 103.397993,20.1270903 C103.397993,22.8896321 100.718328,24.440602 97.5216722,24.440602 Z" id="Path"></path>
                                <path d="M105.043679,24.440602 L105.043679,0 L107.411572,0 L107.411572,10.5647492 C108.497518,9.44970907 109.99106,8.82549998 111.547492,8.83618729 C115.418997,8.83618729 117.826355,11.9183946 117.826355,15.3794649 L117.826355,24.456388 L115.458462,24.456388 L115.458462,15.3913043 C115.458462,13.0234114 113.7299,11.2159197 111.547492,11.2159197 C110.4357,11.1892307 109.362049,11.6218911 108.57941,12.4119978 C107.796771,13.2021045 107.374326,14.2798167 107.411572,15.3913043 L107.411572,24.4682274 L105.043679,24.440602 Z" id="Path"></path>
                            </g>
                            <g id="Icon-octopush">
                                <path d="M37,7.09 C36.0395811,5.76002407 34.7787089,4.67560547 33.32,3.925 C29.4082592,1.80759788 24.97066,0.858295288 20.535,1.19 C20.4006397,1.14151319 20.2565826,1.12607851 20.115,1.145 C19.5,1.225 18.89,1.33 18.29,1.46 C15.9797119,1.84418497 13.7534544,2.62574344 11.71,3.77 C11.318842,3.95283049 11.0623249,4.33857051 11.045,4.77 C8.68323325,6.54910921 7.07691147,9.15135049 6.545,12.06 C5.5,18.21 10.21,23.5 16.44,25.175 C22.795,26.865 30.6,25.09 34.94,20.365 C37.1295342,18.0737822 38.3632984,15.0340734 38.3900154,11.865 C38.3931578,10.1731126 37.9107309,8.51585488 37,7.09 Z" id="bulle.png" fill="#93CE72"></path>
                                <path d="M18.535,2 C21.9761846,1.99228834 25.3732877,2.77399837 28.465,4.285 C30.63,5.37 32.65,6.85 33.79,9.11 C33.9414553,9.41445638 34.0685206,9.73044749 34.17,10.055 C35.4,14.055 33.755,18.26 30.915,21.055 C29.6435428,22.302096 28.1965713,23.3565829 26.62,24.185 C25.5366797,24.7556507 25.0023201,26.0080559 25.34,27.185 L25.34,27.185 C26.015,29.445 29.34,32.875 29.34,32.875 C27.202883,32.5751423 25.2040804,31.6436446 23.6,30.2 C22.8015313,29.504929 22.0957451,28.7100792 21.5,27.835 C21.4150026,27.7016941 21.2680965,27.6207075 21.11,27.62 C20.852261,27.6187084 20.635771,27.8135494 20.61,28.07 C20.5540599,29.2165729 20.5707599,30.3655373 20.66,31.51 C20.8666532,33.547937 21.2361675,35.5660535 21.765,37.545 C21.765,37.545 19.095,34.89 17.945,32.385 C17.3644121,31.0356719 16.9189039,29.6321538 16.615,28.195 C16.5599117,27.9809693 16.3708431,27.8284947 16.15,27.82 C15.9676464,27.818879 15.8014689,27.9244506 15.725,28.09 C14.95,29.78 13.3,32.435 10.5,33.365 C11.4392561,31.6657776 12.1296354,29.8404821 12.55,27.945 L12.55,27.945 C12.7467545,26.9819134 12.176432,26.0277615 11.235,25.745 C6.955,24.49 3.19,21.78 2.235,17.17 C0.89,10.86 5.86,5.325 11.415,3.24 C13.6953953,2.40537348 16.1067101,1.98542538 18.535,2 M18.535,6.17192929e-15 C15.8659067,-0.0180344375 13.2153452,0.444331893 10.71,1.365 C7.48347778,2.56666633 4.67374957,4.6765673 2.62,7.44 C0.34,10.57 -0.475,14.07 0.265,17.56 C1.265,22.365 4.94,25.93 10.575,27.615 C10.1843543,29.3001788 9.55642124,30.9213573 8.71,32.43 C8.38025748,33.0534042 8.40321624,33.8043943 8.77042395,34.4064919 C9.13763167,35.0085894 9.79480331,35.3727853 10.5,35.365 C10.712396,35.366016 10.9235243,35.3322354 11.125,35.265 C12.9125731,34.6280578 14.4820128,33.4956333 15.65,32 C15.8,32.415 15.965,32.825 16.15,33.22 C17.435,36.025 20.26,38.85 20.38,38.965 C21.0249515,39.6075632 22.0224872,39.7334654 22.8068697,39.271303 C23.5912521,38.8091406 23.9645282,37.8755487 23.715,37 C23.291008,35.4127042 22.9719846,33.7992145 22.76,32.17 C24.6033813,33.6559602 26.818488,34.60875 29.165,34.925 L29.35,34.925 C30.1543474,34.9257365 30.8808709,34.4445445 31.1940278,33.7036612 C31.5071846,32.9627779 31.3460329,32.106383 30.785,31.53 C29.545,30.25 27.63,27.89 27.285,26.66 C27.2002619,26.3833149 27.3268708,26.0857841 27.585,25.955 C29.3356645,25.0271832 30.9410284,23.8480072 32.35,22.455 C36,18.85 37.435,13.855 36.08,9.465 C35.9484824,9.03350454 35.7812371,8.61371878 35.58,8.21 C34.395,5.865 32.36,4 29.36,2.5 C25.9896932,0.851602019 22.2868224,-0.00356443371 18.535,6.17192929e-15 Z" id="Shape" fill="#1D1D1B"></path>
                                <ellipse id="Oval" fill="#1D1D1B" cx="17.92" cy="16.335" rx="1.26" ry="1.335"></ellipse>
                                <path d="M18.58,16.335 C18.6016988,16.583591 18.4813403,16.8231648 18.2689471,16.9541513 C18.0565539,17.0851378 17.7884461,17.0851378 17.5760529,16.9541513 C17.3636597,16.8231648 17.2433012,16.583591 17.265,16.335 C17.2433012,16.086409 17.3636597,15.8468352 17.5760529,15.7158487 C17.7884461,15.5848622 18.0565539,15.5848622 18.2689471,15.7158487 C18.4813403,15.8468352 18.6016988,16.086409 18.58,16.335 C18.62,17.105 19.82,17.11 19.78,16.335 C19.7413697,15.3263537 18.9053134,14.5326046 17.8960213,14.5463569 C16.8867292,14.5601092 16.0726099,15.376343 16.0614758,16.3856674 C16.0503417,17.3949918 16.8462569,18.2289863 17.855,18.265 C18.9189564,18.2622436 19.7800036,17.39896 19.78,16.335 C19.82,15.565 18.62,15.565 18.58,16.335 Z" id="Path" fill="#1D1D1B"></path>
                                <ellipse id="Oval" fill="#1D1D1B" cx="12.245" cy="16.335" rx="1.26" ry="1.335"></ellipse>
                                <path d="M12.905,16.335 C12.9266988,16.583591 12.8063403,16.8231648 12.5939471,16.9541513 C12.3815539,17.0851378 12.1134461,17.0851378 11.9010529,16.9541513 C11.6886597,16.8231648 11.5683012,16.583591 11.59,16.335 C11.5683012,16.086409 11.6886597,15.8468352 11.9010529,15.7158487 C12.1134461,15.5848622 12.3815539,15.5848622 12.5939471,15.7158487 C12.8063403,15.8468352 12.9266988,16.086409 12.905,16.335 C12.945,17.105 14.145,17.11 14.105,16.335 C14.1057815,15.2949461 13.2842726,14.4403119 12.245,14.4 C11.2125,14.430361 10.385897,15.2663475 10.3671921,16.2991244 C10.3484872,17.3319014 11.1442765,18.1972714 12.175,18.2650065 C12.6872751,18.2663323 13.1789526,18.0634215 13.5411871,17.7011871 C13.9034215,17.3389526 14.1063323,16.8472751 14.105,16.335 C14.145,15.565 12.945,15.565 12.905,16.335 Z" id="Path" fill="#1D1D1B"></path>
                                <ellipse id="Oval" fill="#1D1D1B" cx="24.34" cy="16.335" rx="1.26" ry="1.335"></ellipse>
                                <path d="M25,16.335 C25,16.6995079 24.7045079,16.995 24.34,16.995 C23.9754921,16.995 23.68,16.6995079 23.68,16.335 C23.68,15.9704921 23.9754921,15.675 24.34,15.675 C24.7045079,15.675 25,15.9704921 25,16.335 C25.035,17.105 26.235,17.11 26.2,16.335 C26.1612948,15.32703 25.326205,14.5336174 24.3175746,14.546522 C23.3089443,14.5594265 22.4944265,15.3739443 22.481522,16.3825746 C22.4686174,17.391205 23.26203,18.2262948 24.27,18.265 C25.3347693,18.2622522 26.1972522,17.3997693 26.2,16.335 C26.235,15.565 25.035,15.565 25,16.335 Z" id="Path" fill="#1D1D1B"></path>
                            </g>
                        </g>
                    </g>
                </g>
            </g>
        </g>
    </g>
</svg>