<svg xmlns="http://www.w3.org/2000/svg" viewBox="0 0 76 29"><path d="M8.42 22.33c1.187 0 2.097-.154 2.73-.462.632-.307.949-.751.949-1.331 0-.343-.117-.631-.35-.864-.233-.233-.494-.35-.784-.35a4.45 4.45 0 00-.844.113c-.36.074-.646.112-.857.112-.387 0-.666-.095-.837-.284-.171-.189-.277-.435-.316-.738a10.74 10.74 0 01-.06-1.298v-6.619h.673c.712 0 1.259-.096 1.641-.29.382-.193.573-.531.573-1.015 0-.378-.134-.688-.402-.93-.268-.24-.657-.362-1.166-.362H8.05V5.56c0-.606-.033-1.074-.099-1.404a1.523 1.523 0 00-.468-.837c-.369-.343-.782-.514-1.239-.514-.325 0-.62.077-.883.23a1.622 1.622 0 00-.607.6c-.14.238-.226.521-.257.85-.03.33-.046.785-.046 1.365v2.162h-.395c-.545 0-.96.121-1.246.363a1.163 1.163 0 00-.429.93c0 .377.137.69.409.935.272.246.668.37 1.187.37h.474v6.908c0 1.116.09 2.008.27 2.676.18.668.56 1.19 1.14 1.569.58.378 1.433.567 2.558.567zm11.642 0c1.01 0 1.905-.132 2.682-.396.778-.264 1.424-.595 1.938-.995.515-.4.9-.818 1.154-1.253.255-.435.382-.815.382-1.14 0-.37-.114-.655-.343-.857-.228-.202-.527-.303-.896-.303-.343 0-.606.079-.791.237a42.85 42.85 0 01-1.094 1.002 7.894 7.894 0 01-.923.692 3.843 3.843 0 01-1.035.475c-.356.1-.75.151-1.18.151a3.378 3.378 0 01-1.76-.474c-.532-.317-.958-.787-1.279-1.41-.32-.625-.485-1.346-.494-2.163h7.04c.94 0 1.67-.134 2.188-.402.519-.268.778-.855.778-1.76 0-.976-.25-1.934-.751-2.874-.501-.94-1.255-1.707-2.261-2.3-1.007-.594-2.213-.89-3.62-.89-1.08 0-2.065.173-2.952.52a6.003 6.003 0 00-2.241 1.497c-.607.65-1.068 1.43-1.385 2.34-.316.91-.474 1.896-.474 2.96 0 2.258.641 4.047 1.924 5.365 1.284 1.318 3.081 1.978 5.393 1.978zm2.887-8.477h-6.526c.123-1.213.472-2.13 1.048-2.75.576-.619 1.312-.929 2.208-.929.94 0 1.699.306 2.274.917.576.61.908 1.531.996 2.762zm16.347 8.477c.466 0 .857-.137 1.174-.41.316-.272.474-.597.474-.975 0-.369-.255-.918-.764-1.648l-3.257-4.667 2.888-3.889c.263-.343.459-.64.586-.89.128-.25.191-.512.191-.784 0-.378-.156-.701-.468-.97-.312-.267-.705-.401-1.18-.401-.413 0-.758.114-1.034.343-.277.228-.605.606-.983 1.133l-2.267 3.19-2.334-3.19c-.369-.51-.692-.883-.969-1.12-.277-.238-.626-.356-1.048-.356-.483 0-.874.136-1.173.408-.299.273-.448.594-.448.963 0 .475.25 1.033.751 1.674l2.887 3.89-3.256 4.666c-.492.703-.738 1.244-.738 1.622 0 .37.16.696.48.982.322.286.71.429 1.168.429.413 0 .753-.115 1.021-.343.268-.229.596-.611.982-1.147l2.677-3.837 2.61 3.837c.37.518.697.896.982 1.134.286.237.635.356 1.048.356zm8.794 0c1.186 0 2.096-.154 2.729-.462.633-.307.95-.751.95-1.331 0-.343-.117-.631-.35-.864-.233-.233-.495-.35-.785-.35a4.45 4.45 0 00-.843.113c-.36.074-.646.112-.857.112-.387 0-.666-.095-.838-.284-.171-.189-.276-.435-.316-.738a10.74 10.74 0 01-.06-1.298v-6.619h.673c.712 0 1.26-.096 1.641-.29.383-.193.574-.531.574-1.015 0-.378-.134-.688-.402-.93-.268-.24-.657-.362-1.167-.362h-1.318V5.56c0-.606-.033-1.074-.1-1.404a1.523 1.523 0 00-.467-.837c-.37-.343-.782-.514-1.24-.514-.325 0-.62.077-.883.23a1.622 1.622 0 00-.606.6c-.14.238-.227.521-.257.85-.031.33-.046.785-.046 1.365v2.162h-.396c-.545 0-.96.121-1.246.363a1.163 1.163 0 00-.428.93c0 .377.136.69.408.935.273.246.668.37 1.187.37h.475v6.908c0 1.116.09 2.008.27 2.676.18.668.56 1.19 1.14 1.569.58.378 1.433.567 2.558.567zm6.776 0c.536 0 .974-.183 1.312-.548.338-.364.508-.911.508-1.64V4.531c0-.73-.167-1.277-.501-1.642-.334-.364-.774-.547-1.319-.547-.545 0-.978.185-1.298.554-.321.37-.482.914-.482 1.635v15.61c0 .702.165 1.243.495 1.62.33.379.758.568 1.285.568zm7.106 5.339c1.081 0 1.94-.165 2.578-.494a3.904 3.904 0 001.535-1.418c.387-.615.783-1.463 1.187-2.544l4.693-12.287c.115-.317.211-.629.29-.936.08-.308.137-.545.172-.712a1.583 1.583 0 00-1.57-1.582c-.377 0-.67.066-.876.198-.206.131-.402.386-.586.764-.185.378-.392.901-.62 1.57l-2.887 8.239-3.046-8.86c-.202-.615-.435-1.087-.698-1.417-.264-.33-.655-.494-1.174-.494-.299 0-.586.079-.863.237a1.77 1.77 0 00-.653.633c-.158.264-.237.55-.237.857 0 .29.136.756.408 1.397l4.43 11.154-.33.804c-.246.589-.463 1.035-.652 1.338-.189.303-.402.516-.64.64-.237.122-.562.184-.975.184-.167 0-.365-.026-.593-.08a2.053 2.053 0 00-.567-.078c-.492 0-.864.112-1.114.336-.25.224-.376.543-.376.956 0 .606.264 1.024.791 1.252.527.229 1.318.343 2.373.343z" fill="#EC3E01" fill-rule="nonzero"/></svg>